<?xml version="1.0" standalone="no"?>
<!DOCTYPE svg PUBLIC "-//W3C//DTD SVG 20010904//EN"
 "http://www.w3.org/TR/2001/REC-SVG-20010904/DTD/svg10.dtd">
<svg version="1.0" xmlns="http://www.w3.org/2000/svg"
 width="318.000000pt" height="318.000000pt" viewBox="0 0 318.000000 318.000000"
 preserveAspectRatio="xMidYMid meet">
<metadata>
Created by potrace 1.14, written by Peter Selinger 2001-2017
</metadata>
<g transform="translate(0.000000,318.000000) scale(0.100000,-0.100000)"
fill="#000000" stroke="none">
<path d="M244 2005 c-7 -5 -29 -64 -49 -130 -20 -66 -43 -138 -51 -160 -15
-45 -94 -292 -99 -315 -3 -8 -7 -25 -11 -38 l-6 -22 1462 2 1462 3 50 155 c27
85 76 234 107 330 32 96 57 177 55 179 -8 9 -2908 5 -2920 -4z"/>
<path d="M1775 1249 c-10 -16 -13 -99 -5 -104 5 -3 10 22 12 55 3 64 3 66 -7
49z"/>
<path d="M55 1190 c2 -55 15 -64 15 -11 0 26 4 40 10 36 6 -3 10 -1 10 4 0 6
-8 11 -19 11 -15 0 -18 -7 -16 -40z"/>
<path d="M143 1183 c0 -42 1 -45 14 -27 13 18 15 18 27 2 11 -15 12 -12 10 20
-1 20 -2 40 -3 45 -1 4 -12 7 -25 7 -21 0 -23 -4 -23 -47z m28 4 c-8 -8 -11
-7 -11 4 0 20 13 34 18 19 3 -7 -1 -17 -7 -23z"/>
<path d="M264 1194 c-8 -20 -13 -41 -10 -47 3 -9 5 -8 5 1 1 6 9 12 19 12 10
0 24 -6 31 -12 11 -11 12 -8 6 12 -14 45 -24 70 -30 70 -3 0 -13 -16 -21 -36z
m26 -5 c0 -11 -4 -18 -10 -14 -5 3 -7 12 -3 20 7 21 13 19 13 -6z"/>
<path d="M371 1183 l2 -48 6 40 c6 33 8 36 14 19 9 -27 47 -62 48 -46 5 54 -3
93 -10 52 l-7 -35 -17 33 c-25 45 -37 40 -36 -15z"/>
<path d="M503 1214 c-4 -11 2 -23 18 -35 l24 -19 -30 0 c-24 -1 -27 -2 -13
-10 20 -12 48 -3 48 16 0 7 -9 18 -20 24 -24 13 -17 32 7 23 11 -4 14 -3 9 5
-10 17 -36 15 -43 -4z"/>
<path d="M605 1220 c-8 -13 -3 -80 7 -80 4 0 8 19 8 41 0 36 2 40 15 29 13
-10 13 -15 3 -21 -7 -4 -9 -11 -5 -15 13 -13 29 13 22 35 -6 21 -39 29 -50 11z"/>
<path d="M726 1214 c-9 -8 -16 -22 -16 -29 0 -17 27 -45 44 -45 32 0 48 54 24
78 -16 16 -33 15 -52 -4z m50 -28 c3 -19 -22 -40 -36 -31 -14 9 -13 52 3 58
14 5 30 -7 33 -27z"/>
<path d="M849 1228 c-6 -20 -4 -80 2 -84 5 -3 9 5 9 18 l1 23 18 -22 c11 -13
22 -23 26 -23 4 0 3 6 -3 13 -6 7 -10 26 -9 43 2 23 -2 30 -20 32 -13 2 -23 2
-24 0z m32 -31 c-13 -13 -26 -3 -16 12 3 6 11 8 17 5 6 -4 6 -10 -1 -17z"/>
<path d="M950 1220 c0 -5 6 -9 13 -7 7 1 12 -10 12 -30 0 -17 4 -35 8 -39 4
-4 7 12 7 35 0 26 4 40 10 36 6 -3 10 -1 10 4 0 6 -13 11 -30 11 -16 0 -30 -4
-30 -10z"/>
<path d="M1062 1188 c3 -36 7 -44 26 -46 12 -2 22 1 22 7 0 6 -7 8 -15 5 -9
-4 -15 0 -15 10 0 9 8 16 18 17 13 0 11 3 -6 10 -13 5 -20 13 -17 19 4 6 10 8
15 5 5 -3 11 -1 15 5 4 6 -5 10 -20 10 -24 0 -26 -3 -23 -42z"/>
<path d="M1238 1223 c-5 -29 -2 -69 7 -75 15 -11 35 -10 35 2 0 6 -5 9 -11 8
-19 -5 -21 20 -2 25 17 4 17 5 1 6 -10 0 -18 8 -18 17 0 8 4 13 9 9 5 -3 12
-1 16 5 3 5 -3 10 -14 10 -12 0 -22 -3 -23 -7z"/>
<path d="M1409 1218 c-5 -78 -4 -78 19 -78 12 0 22 4 22 10 0 5 -7 7 -15 4
-11 -5 -14 3 -12 35 2 23 -1 41 -5 41 -4 0 -8 -6 -9 -12z"/>
<path d="M1523 1223 c-7 -2 -13 -18 -13 -34 0 -22 7 -32 26 -41 23 -11 28 -10
40 7 29 39 -8 87 -53 68z m47 -37 c0 -30 -9 -37 -31 -25 -21 11 -24 30 -8 46
17 17 39 4 39 -21z"/>
<path d="M1658 1218 c-25 -21 -28 -45 -8 -63 17 -16 60 -14 60 3 0 16 -19 36
-27 29 -4 -5 -2 -12 6 -16 10 -7 10 -9 -2 -14 -16 -6 -37 10 -37 30 0 14 34
35 44 26 3 -3 6 -1 6 5 0 16 -22 15 -42 0z"/>
<path d="M1839 1214 c-10 -13 -10 -17 2 -25 8 -5 18 -9 22 -9 5 0 5 -10 2 -22
-7 -22 -6 -22 10 -6 19 18 13 38 -11 38 -9 0 -14 6 -11 13 2 6 10 11 16 10 6
-2 11 2 11 7 0 15 -26 12 -41 -6z"/>
<path d="M1940 1219 c0 -5 5 -7 10 -4 7 4 9 -2 7 -17 -3 -13 -1 -32 4 -43 6
-16 8 -12 8 18 1 20 6 37 11 37 6 0 10 5 10 10 0 6 -11 10 -25 10 -14 0 -25
-5 -25 -11z"/>
<path d="M2049 1228 c-6 -13 -3 -88 3 -88 5 0 8 20 8 45 0 37 -5 56 -11 43z"/>
<path d="M2132 1218 c-25 -25 -8 -78 25 -78 7 0 13 5 13 11 0 5 -4 8 -9 5 -13
-8 -34 21 -27 39 3 8 15 15 26 15 12 0 18 5 15 10 -8 14 -28 13 -43 -2z"/>
<path d="M2242 1197 c-15 -42 -16 -69 -2 -47 12 19 32 19 48 0 12 -13 13 -12
7 5 -30 88 -35 92 -53 42z m28 -7 c0 -5 -5 -10 -11 -10 -5 0 -7 5 -4 10 3 6 8
10 11 10 2 0 4 -4 4 -10z"/>
<path d="M2421 1216 c-10 -11 -7 -17 10 -29 24 -17 18 -39 -9 -31 -14 5 -14 4
2 -6 15 -10 21 -9 35 5 15 16 14 18 -6 32 -26 17 -31 35 -8 27 8 -4 15 -1 15
5 0 16 -25 14 -39 -3z"/>
<path d="M2520 1186 c0 -27 4 -45 9 -41 10 6 8 72 -3 82 -3 4 -6 -15 -6 -41z"/>
<path d="M2601 1225 c-2 -5 -4 -27 -5 -47 -2 -40 13 -49 44 -27 12 9 11 10 -7
6 -19 -4 -22 0 -26 37 -2 22 -5 37 -6 31z"/>
<path d="M2696 1210 c14 -51 25 -73 33 -64 14 16 30 73 22 79 -5 2 -12 -10
-15 -28 l-7 -32 -20 35 c-15 26 -18 29 -13 10z"/>
<path d="M2815 1194 c-8 -20 -15 -42 -15 -48 1 -20 30 27 30 48 0 17 2 18 10
6 5 -9 5 -19 -2 -27 -8 -10 -6 -13 5 -13 8 0 18 -6 20 -12 4 -8 6 -9 6 -2 1
14 -27 84 -34 84 -3 0 -12 -16 -20 -36z"/>
<path d="M1835 1150 c3 -5 8 -10 11 -10 2 0 4 5 4 10 0 6 -5 10 -11 10 -5 0
-7 -4 -4 -10z"/>
</g>
</svg>
